<?xml version="1.0" encoding="UTF-8"?>
<svg width="325px" height="362px" viewBox="0 0 325 362" version="1.1" xmlns="http://www.w3.org/2000/svg" xmlns:xlink="http://www.w3.org/1999/xlink">
    <!-- Generator: Sketch 40.2 (33826) - http://www.bohemiancoding.com/sketch -->
    <title>Group 2</title>
    <desc>Created with Sketch.</desc>
    <defs>
        <polyline id="path-1" points="95.5786457 126.550539 112.761915 126.550539 112.761915 143.790021"></polyline>
        <mask id="mask-2" maskContentUnits="userSpaceOnUse" maskUnits="objectBoundingBox" x="0" y="0" width="17.183269" height="17.2394816" fill="white">
            <use xlink:href="#path-1"></use>
        </mask>
    </defs>
    <g id="Page-1" stroke="none" stroke-width="1" fill="none" fill-rule="evenodd">
        <g id="ABXXXX_mockup_CONTATTI" transform="translate(-881.000000, -1806.000000)" stroke="#869D96">
            <g id="Group-2" transform="translate(882.000000, 1783.000000)">
                <use id="Rectangle-10" mask="url(#mask-2)" transform="translate(104.170280, 135.170280) rotate(-225.000000) translate(-104.170280, -135.170280) " xlink:href="#path-1"></use>
                <ellipse id="Oval-6" stroke-width="0.5" fill="#FFFFFF" cx="103.901596" cy="280.96343" rx="18.9015959" ry="18.9634297"></ellipse>
                <path d="M145.286991,181.580725 C203.441417,181.580725 250.584893,134.283025 250.584893,75.9383564 C250.584893,27.0714279 217.51374,-14.0460505 172.600943,-26.1151216" id="Oval-7" stroke-width="0.5" transform="translate(197.935942, 77.732802) rotate(-105.000000) translate(-197.935942, -77.732802) "></path>
                <ellipse id="Oval-8" stroke-width="0.5" fill="#869D96" cx="312.903315" cy="119.935712" rx="9.90331492" ry="9.93571217"></ellipse>
                <ellipse id="Oval-3" stroke-width="0.5" stroke-dasharray="10,10,10" cx="103.5" cy="280.5" rx="103.5" ry="103.5"></ellipse>
                <circle id="Oval-3" cx="104.5" cy="281.5" r="67.5"></circle>
                <ellipse id="Oval" stroke-width="2" fill="#FFFFFF" cx="105" cy="215" rx="15" ry="15"></ellipse>
                <path d="M94.5,204.5 L115.505952,225.505952" id="Line" stroke-width="2"></path>
            </g>
        </g>
    </g>
</svg>